<svg id="ai-search-engine" xmlns="http://www.w3.org/2000/svg" width="48.645" height="48.645" viewBox="0 0 48.645 48.645">
  <path id="Path_3760" data-name="Path 3760" d="M132.593,112H114.727a2.906,2.906,0,0,0-2.9,2.9v17.866a2.906,2.906,0,0,0,2.9,2.9h17.866a2.907,2.907,0,0,0,2.9-2.9V114.9A2.907,2.907,0,0,0,132.593,112Zm1.563,20.769a1.565,1.565,0,0,1-1.563,1.563H114.727a1.565,1.565,0,0,1-1.563-1.563V114.9a1.565,1.565,0,0,1,1.563-1.563h17.866a1.565,1.565,0,0,1,1.563,1.563Zm0,0" transform="translate(-99.338 -99.494)" fill="#ff283c"/>
  <path id="Path_3761" data-name="Path 3761" d="M108.176,82H85.844a4.024,4.024,0,0,0-4.02,4.02v22.332a4.024,4.024,0,0,0,4.02,4.02h22.332a4.025,4.025,0,0,0,4.02-4.02V86.02A4.024,4.024,0,0,0,108.176,82Zm2.68,26.352a2.683,2.683,0,0,1-2.68,2.68H85.844a2.683,2.683,0,0,1-2.68-2.68V86.02a2.683,2.683,0,0,1,2.68-2.68h22.332a2.683,2.683,0,0,1,2.68,2.68Zm0,0" transform="translate(-72.687 -72.844)" fill="#ff283c"/>
  <path id="Path_3762" data-name="Path 3762" d="M234.111,373.645a.67.67,0,0,0-.67.67V379.9a.67.67,0,1,0,1.34,0v-5.583A.67.67,0,0,0,234.111,373.645Zm0,0" transform="translate(-207.375 -331.923)" fill="#ff283c"/>
  <path id="Path_3763" data-name="Path 3763" d="M190.877,373.645a.67.67,0,0,0-.67.67V379.9a.67.67,0,1,0,1.34,0v-5.583A.67.67,0,0,0,190.877,373.645Zm0,0" transform="translate(-168.968 -331.923)" fill="#ff283c"/>
  <path id="Path_3764" data-name="Path 3764" d="M147.643,373.645a.67.67,0,0,0-.67.67V379.9a.67.67,0,1,0,1.34,0v-5.583A.67.67,0,0,0,147.643,373.645Zm0,0" transform="translate(-130.562 -331.923)" fill="#ff283c"/>
  <path id="Path_3765" data-name="Path 3765" d="M277.346,373.645a.67.67,0,0,0-.67.67V379.9a.67.67,0,1,0,1.34,0v-5.583A.67.67,0,0,0,277.346,373.645Zm0,0" transform="translate(-245.782 -331.923)" fill="#ff283c"/>
  <path id="Path_3766" data-name="Path 3766" d="M191.547,6.253V.67a.67.67,0,1,0-1.34,0V6.253a.67.67,0,1,0,1.34,0Zm0,0" transform="translate(-168.968)" fill="#ff283c"/>
  <path id="Path_3767" data-name="Path 3767" d="M234.781,6.253V.67a.67.67,0,1,0-1.34,0V6.253a.67.67,0,1,0,1.34,0Zm0,0" transform="translate(-207.375)" fill="#ff283c"/>
  <path id="Path_3768" data-name="Path 3768" d="M278.016,6.253V.67a.67.67,0,1,0-1.34,0V6.253a.67.67,0,1,0,1.34,0Zm0,0" transform="translate(-245.782)" fill="#ff283c"/>
  <path id="Path_3769" data-name="Path 3769" d="M148.313,6.253V.67a.67.67,0,0,0-1.34,0V6.253a.67.67,0,0,0,1.34,0Zm0,0" transform="translate(-130.562)" fill="#ff283c"/>
  <path id="Path_3770" data-name="Path 3770" d="M379.9,190.207h-5.583a.67.67,0,1,0,0,1.34H379.9a.67.67,0,1,0,0-1.34Zm0,0" transform="translate(-331.923 -168.968)" fill="#ff283c"/>
  <path id="Path_3771" data-name="Path 3771" d="M379.9,233.441h-5.583a.67.67,0,1,0,0,1.34H379.9a.67.67,0,1,0,0-1.34Zm0,0" transform="translate(-331.923 -207.375)" fill="#ff283c"/>
  <path id="Path_3772" data-name="Path 3772" d="M379.9,276.676h-5.583a.67.67,0,1,0,0,1.34H379.9a.67.67,0,1,0,0-1.34Zm0,0" transform="translate(-331.923 -245.782)" fill="#ff283c"/>
  <path id="Path_3773" data-name="Path 3773" d="M379.9,146.973h-5.583a.67.67,0,1,0,0,1.34H379.9a.67.67,0,1,0,0-1.34Zm0,0" transform="translate(-331.923 -130.562)" fill="#ff283c"/>
  <path id="Path_3774" data-name="Path 3774" d="M6.253,233.441H.67a.67.67,0,1,0,0,1.34H6.253a.67.67,0,1,0,0-1.34Zm0,0" transform="translate(0 -207.375)" fill="#ff283c"/>
  <path id="Path_3775" data-name="Path 3775" d="M6.253,190.207H.67a.67.67,0,1,0,0,1.34H6.253a.67.67,0,1,0,0-1.34Zm0,0" transform="translate(0 -168.968)" fill="#ff283c"/>
  <path id="Path_3776" data-name="Path 3776" d="M6.253,146.973H.67a.67.67,0,0,0,0,1.34H6.253a.67.67,0,0,0,0-1.34Zm0,0" transform="translate(0 -130.562)" fill="#ff283c"/>
  <path id="Path_3777" data-name="Path 3777" d="M6.253,276.676H.67a.67.67,0,1,0,0,1.34H6.253a.67.67,0,1,0,0-1.34Zm0,0" transform="translate(0 -245.782)" fill="#ff283c"/>
  <path id="Path_3778" data-name="Path 3778" d="M179.475,171.762a.838.838,0,0,0-.835-.442.819.819,0,0,0-.823.442l-2.444,7.959a.353.353,0,0,0-.012.111c0,.319.454.54.811.54a.418.418,0,0,0,.454-.27l.5-1.744h3.034l.5,1.744a.412.412,0,0,0,.442.27c.369,0,.823-.233.823-.54a.347.347,0,0,0-.025-.111Zm-2.064,5.552,1.228-4.213,1.228,4.213Zm0,0" transform="translate(-155.779 -152.19)" fill="#ff283c"/>
  <path id="Path_3779" data-name="Path 3779" d="M243.553,171.98c-.319,0-.651.123-.651.417v8.131c0,.283.332.43.651.43s.651-.147.651-.43V172.4C244.2,172.1,243.885,171.98,243.553,171.98Zm0,0" transform="translate(-215.779 -152.776)" fill="#ff283c"/>
</svg>
