<svg xmlns="http://www.w3.org/2000/svg" width="88" height="88" viewBox="0 0 88 88">
  <g id="interface_1_" data-name="interface(1)" transform="translate(-0.001)">
    <g id="Group_3606" data-name="Group 3606" transform="translate(0.001 0)">
      <g id="Group_3605" data-name="Group 3605" transform="translate(0)">
        <g id="Path_3792" data-name="Path 3792" transform="translate(-0.001 0)" fill="#ff283c">
          <path d="M 59.33700180053711 87.50022888183594 C 59.33112335205078 87.50022888183594 59.32527923583984 87.50021362304688 59.31933975219727 87.50021362304688 C 58.75537109375 87.50021362304688 58.2459716796875 87.16555023193359 58.02157211303711 86.64762115478516 L 41.02448272705078 47.29962539672852 L 40.94109344482422 47.10659027099609 L 40.74481582641602 47.03116989135742 L 1.409716606140137 31.91670227050781 C 0.8552387952804565 31.70420265197754 0.4905610084533691 31.1628246307373 0.501838743686676 30.56940269470215 C 0.5131165385246277 29.97586822509766 0.8969276547431946 29.45042419433594 1.456883192062378 29.26190185546875 L 85.63559722900391 0.56461101770401 C 85.64098358154297 0.5640480518341064 85.64636993408203 0.5636153221130371 85.65174865722656 0.5630911588668823 C 85.68946075439453 0.5594356060028076 85.74111938476563 0.554424524307251 85.80143737792969 0.5402244925498962 C 85.87783813476563 0.5218467116355896 85.95569610595703 0.5048578381538391 86.02411651611328 0.5011245012283325 C 86.03964233398438 0.5003356337547302 86.05686950683594 0.4999355971813202 86.07403564453125 0.4999355971813202 C 86.13056945800781 0.4999355971813202 86.1937255859375 0.5043134093284607 86.27279663085938 0.5136911869049072 C 86.35145568847656 0.5231353044509888 86.41722106933594 0.5327885746955872 86.47871398925781 0.5486170053482056 C 86.54849243164063 0.5695585608482361 86.62087249755859 0.5991261005401611 86.71224975585938 0.643980085849762 C 86.75949859619141 0.666800320148468 86.80109405517578 0.6816337108612061 86.83250427246094 0.6920542120933533 C 86.85050964355469 0.708321213722229 86.87266540527344 0.7268230319023132 86.89861297607422 0.7451467514038086 C 86.96465301513672 0.7915133833885193 87.02743530273438 0.8517022728919983 87.08029174804688 0.9045689702033997 C 87.14560699462891 0.9698578119277954 87.20294952392578 1.028513431549072 87.24385833740234 1.085524559020996 L 87.248291015625 1.091702222824097 L 87.25290679931641 1.097746729850769 C 87.27061462402344 1.12090003490448 87.28807830810547 1.140653371810913 87.30340576171875 1.156864643096924 C 87.31401062011719 1.187606573104858 87.32816314697266 1.226404905319214 87.34908294677734 1.26973557472229 C 87.39811706542969 1.36972451210022 87.42684173583984 1.439302325248718 87.44647979736328 1.505213379859924 C 87.46650695800781 1.570357799530029 87.47754669189453 1.63760232925415 87.48927307128906 1.726335644721985 C 87.49957275390625 1.80740225315094 87.50327301025391 1.881402254104614 87.50057983398438 1.956835627555847 C 87.498291015625 2.021924495697021 87.48835754394531 2.09138011932373 87.46734619140625 2.18941330909729 L 87.46599578857422 2.195735692977905 L 87.46480560302734 2.202080011367798 C 87.45494079589844 2.254735708236694 87.45166015625 2.299757719039917 87.44926452636719 2.332624435424805 C 87.44896697998047 2.336671829223633 87.44872283935547 2.340713500976563 87.44842529296875 2.344743967056274 L 60.66640472412109 86.516845703125 C 60.48801803588867 87.07450103759766 59.97491836547852 87.469482421875 59.38987350463867 87.49893188476563 C 59.37017440795898 87.50008392333984 59.35346221923828 87.50022888183594 59.33700180053711 87.50022888183594 Z M 81.54466247558594 8.45409107208252 L 43.92019271850586 46.08046722412109 L 43.68010711669922 46.3205680847168 L 43.81475067138672 46.63228988647461 L 58.58669281005859 80.82973480224609 L 59.11682891845703 82.05699920654297 L 59.52217102050781 80.78305816650391 L 82.37469482421875 8.959235191345215 L 81.54466247558594 8.45409107208252 Z M 78.77291870117188 5.887057781219482 L 7.368149757385254 30.23015785217285 L 6.062349796295166 30.67533493041992 L 7.350161075592041 31.17014694213867 L 41.34860610961914 44.23336791992188 L 41.65181732177734 44.34986877441406 L 41.88149261474609 44.12018966674805 L 79.28781890869141 6.713869094848633 L 78.77291870117188 5.887057781219482 Z" stroke="none"/>
          <path d="M 86.07399749755859 0.9999313354492188 C 86.06527709960938 0.9999313354492188 86.05652618408203 1.0001220703125 86.05133819580078 1.000381469726563 C 86.01899719238281 1.002143859863281 85.94518280029297 1.019912719726563 85.91606903076172 1.026908874511719 C 85.84748840332031 1.043052673339844 85.78768920898438 1.051361083984375 85.74256896972656 1.056396484375 L 1.616432189941406 29.73574447631836 C 1.25604248046875 29.85708618164063 1.009017944335938 30.1959228515625 1.001747131347656 30.57889938354492 C 0.9944534301757813 30.96248626708984 1.230148315429688 31.31242752075195 1.589057922363281 31.44998168945313 L 40.92414855957031 46.56443786621094 L 41.31671524047852 46.71527481079102 L 41.48347854614258 47.10134506225586 L 58.48037338256836 86.44886016845703 C 58.62548065185547 86.78379058837891 58.95479583740234 87.00021362304688 59.3193359375 87.00021362304688 C 59.32639694213867 87.00021362304688 59.33326721191406 87.00029754638672 59.33993148803711 87.00029754638672 C 59.34548950195313 87.00029754638672 59.35089874267578 87.000244140625 59.35616302490234 87.00003051757813 L 59.36044311523438 86.99977874755859 L 59.36472702026367 86.99957275390625 C 59.74303436279297 86.98050689697266 60.07485580444336 86.72500610351563 60.18993759155273 86.36524200439453 L 86.95442199707031 2.248329162597656 C 86.95782470703125 2.2109375 86.96332550048828 2.163528442382813 86.97339630126953 2.109878540039063 L 86.97576141357422 2.09722900390625 L 86.97845458984375 2.084648132324219 C 86.99278259277344 2.017807006835938 86.99969482421875 1.973075866699219 87.00089263916016 1.938995361328125 C 87.00261688232422 1.890663146972656 87.00016021728516 1.843795776367188 86.99355316162109 1.791725158691406 C 86.98689270019531 1.741241455078125 86.97886657714844 1.685707092285156 86.96987915039063 1.656524658203125 L 86.96857452392578 1.652290344238281 L 86.96731567382813 1.648048400878906 C 86.95600891113281 1.610145568847656 86.93634033203125 1.563690185546875 86.90153503417969 1.492721557617188 L 86.900146484375 1.489906311035156 L 86.89878845214844 1.487075805664063 C 86.88664245605469 1.461921691894531 86.87606048583984 1.437995910644531 86.86685180664063 1.415779113769531 C 86.86314392089844 1.411087036132813 86.85942840576172 1.406303405761719 86.85569000244141 1.401412963867188 L 86.84646606445313 1.389358520507813 L 86.83762359619141 1.377029418945313 C 86.81722259521484 1.348594665527344 86.75834655761719 1.289710998535156 86.72682189941406 1.258193969726563 C 86.69129180908203 1.222663879394531 86.64618682861328 1.178840637207031 86.61031341552734 1.153648376464844 C 86.60024261474609 1.146537780761719 86.59056091308594 1.139472961425781 86.58123779296875 1.132461547851563 C 86.55542755126953 1.122093200683594 86.52736663818359 1.109947204589844 86.49798583984375 1.095771789550781 L 86.49491119384766 1.094284057617188 L 86.49185943603516 1.092788696289063 C 86.43115234375 1.06298828125 86.38508605957031 1.04345703125 86.34494018554688 1.030601501464844 C 86.30864715576172 1.022178649902344 86.26025390625 1.015769958496094 86.21397399902344 1.010215759277344 C 86.15483093261719 1.003204345703125 86.11035919189453 0.9999313354492188 86.07399749755859 0.9999313354492188 M 41.77568054199219 44.93310928344727 L 41.16926574707031 44.70011138916016 L 7.170822143554688 31.63688659667969 L 4.595199584960938 30.64725112915039 L 7.206809997558594 29.75690841674805 L 78.611572265625 5.413803100585938 L 79.641357421875 7.067413330078125 L 42.23504257202148 44.47374725341797 L 41.77568054199219 44.93310928344727 M 59.18795013427734 83.4825439453125 L 58.12769317626953 81.02799224853516 L 43.35575103759766 46.83054351806641 L 43.08645629882813 46.20712280273438 L 43.56663131713867 45.72690963745117 L 81.19109344482422 8.100532531738281 L 82.85115051269531 9.110824584960938 L 59.99863433837891 80.93465423583984 L 59.18795013427734 83.4825439453125 M 86.07399749755859 -6.866455078125e-05 C 86.15996551513672 -6.103515625e-05 86.24472045898438 0.0068511962890625 86.33172607421875 0.0171661376953125 C 86.42738342285156 0.02864837646484375 86.51924133300781 0.0420379638671875 86.61299896240234 0.066925048828125 C 86.72397613525391 0.09944915771484375 86.82730102539063 0.143463134765625 86.93254852294922 0.1951370239257813 C 86.98804473876953 0.2219085693359375 87.04736328125 0.2295684814453125 87.10093688964844 0.2621002197265625 C 87.13345336914063 0.2812271118164063 87.15451812744141 0.3137588500976563 87.18704223632813 0.3367233276367188 C 87.27696990966797 0.3998641967773438 87.35542297363281 0.4725799560546875 87.43387603759766 0.551025390625 C 87.5123291015625 0.629486083984375 87.58695220947266 0.706024169921875 87.65010070800781 0.794036865234375 C 87.67497253417969 0.826568603515625 87.70941162109375 0.8495330810546875 87.73045349121094 0.88397216796875 C 87.76300048828125 0.9375534057617188 87.77256011962891 0.9968643188476563 87.79934692382813 1.052360534667969 C 87.84909057617188 1.153770446777344 87.89311218261719 1.253273010253906 87.92562866210938 1.362342834472656 C 87.95625305175781 1.461837768554688 87.97156524658203 1.559425354003906 87.98494720458984 1.660842895507813 C 87.99833679199219 1.766090393066406 88.00408172607422 1.867485046386719 88.00025939941406 1.974647521972656 C 87.99642944335938 2.083709716796875 87.97921752929688 2.187049865722656 87.95625305175781 2.294204711914063 C 87.94477081298828 2.355430603027344 87.95050048828125 2.416664123535156 87.93137359619141 2.475982666015625 L 61.14286804199219 86.66844177246094 C 60.89986801147461 87.42808532714844 60.21292877197266 87.95812225341797 59.41500854492188 87.99829864501953 C 59.38247680664063 88.00021362304688 59.35186767578125 88.00021362304688 59.3193359375 88.00021362304688 C 58.5596923828125 88.00021362304688 57.86701965332031 87.54863739013672 57.56278610229492 86.84638977050781 L 40.56546783447266 47.49789810180664 L 1.230377197265625 32.38343811035156 C 0.476470947265625 32.09449768066406 -0.0133819580078125 31.36547470092773 0.001922607421875 30.55989837646484 C 0.01723480224609375 29.75433349609375 0.5357818603515625 29.04444122314453 1.297340393066406 28.78802871704102 L 85.48979949951172 0.0860595703125 C 85.55485534667969 0.0630950927734375 85.62183380126953 0.06884002685546875 85.6868896484375 0.05352020263671875 C 85.79020690917969 0.02864837646484375 85.89161682128906 0.00760650634765625 85.99686431884766 0.001861572265625 C 86.02275085449219 0.00054931640625 86.04842376708984 -6.866455078125e-05 86.07399749755859 -6.866455078125e-05 Z M 41.52793884277344 43.76663970947266 L 78.93425750732422 6.360313415527344 L 7.529487609863281 30.70341491699219 L 41.52793884277344 43.76663970947266 Z M 59.04570007324219 80.63145446777344 L 81.89822387695313 8.807624816894531 L 44.27376174926758 46.43400573730469 L 59.04570007324219 80.63145446777344 Z" stroke="none" fill="#ecedf2"/>
        </g>
        <g id="Path_3793" data-name="Path 3793" transform="translate(-0.001 -182.534)" fill="#ff283c">
          <path d="M 1.914939284324646 270.033935546875 C 1.537659287452698 270.033935546875 1.182779312133789 269.8868408203125 0.9156793355941772 269.6197204589844 C 0.3646893203258514 269.0687255859375 0.3646893203258514 268.1721801757813 0.9156793355941772 267.6211853027344 L 27.70417976379395 240.8326721191406 C 27.97159004211426 240.5652618408203 28.32647895812988 240.4179992675781 28.70344924926758 240.4179992675781 C 29.08042907714844 240.4179992675781 29.4353084564209 240.5652618408203 29.70270919799805 240.8326721191406 C 29.97012901306152 241.1000823974609 30.11739921569824 241.4549713134766 30.11739921569824 241.8319396972656 C 30.11739921569824 242.2089233398438 29.97012901306152 242.5638122558594 29.70271873474121 242.8312225341797 L 2.914209365844727 269.6197204589844 C 2.647099256515503 269.8868408203125 2.292229413986206 270.033935546875 1.914939284324646 270.033935546875 Z" stroke="none"/>
          <path d="M 28.70344924926758 240.9179992675781 C 28.46002960205078 240.9179992675781 28.23070907592773 241.0132446289063 28.0577392578125 241.1862487792969 L 1.269229888916016 267.9747314453125 C 0.9131889343261719 268.3307800292969 0.9131889343261719 268.9100952148438 1.26923942565918 269.2661743164063 C 1.441900253295898 269.4388427734375 1.671218872070313 269.533935546875 1.914939880371094 269.533935546875 C 2.158668518066406 269.533935546875 2.387979507446289 269.4388427734375 2.560649871826172 269.2661743164063 L 29.34915924072266 242.4776611328125 C 29.70520973205566 242.1216125488281 29.70520973205566 241.5422668457031 29.34914970397949 241.1862182617188 C 29.17618942260742 241.0132446289063 28.94686889648438 240.9179992675781 28.70344924926758 240.9179992675781 M 28.70345306396484 239.9179992675781 C 29.19282150268555 239.9179992675781 29.68218994140625 240.1050415039063 30.0562686920166 240.4791259765625 C 30.80443954467773 241.227294921875 30.80443954467773 242.4365844726563 30.0562686920166 243.1847534179688 L 3.267759323120117 269.9732666015625 C 2.89463996887207 270.3464050292969 2.404788970947266 270.533935546875 1.914939880371094 270.533935546875 C 1.425098419189453 270.533935546875 0.9352493286132813 270.3464050292969 0.5621185302734375 269.9732666015625 C -0.1860408782958984 269.22509765625 -0.1860408782958984 268.0158081054688 0.5621185302734375 267.2676391601563 L 27.35062980651855 240.4791259765625 C 27.7247142791748 240.1050415039063 28.21408462524414 239.9179992675781 28.70345306396484 239.9179992675781 Z" stroke="none" fill="#ecedf2"/>
        </g>
        <g id="Path_3794" data-name="Path 3794" transform="translate(-66.953 -225.139)" fill="#ff283c">
          <path d="M 89.91493225097656 312.6396484375 C 89.53763580322266 312.6396484375 89.18275451660156 312.4925537109375 88.91567230224609 312.2254638671875 C 88.36468505859375 311.6744689941406 88.36468505859375 310.7779235839844 88.91567230224609 310.2269287109375 L 102.309928894043 296.8326721191406 C 102.5773391723633 296.5652770996094 102.9322128295898 296.4179992675781 103.309196472168 296.4179992675781 C 103.6861724853516 296.4179992675781 104.0410537719727 296.5652770996094 104.308464050293 296.8326721191406 C 104.8594589233398 297.3836669921875 104.8594589233398 298.2802124023438 104.308464050293 298.8312072753906 L 90.91421508789063 312.2254638671875 C 90.64712524414063 312.4925537109375 90.292236328125 312.6396484375 89.91493225097656 312.6396484375 Z" stroke="none"/>
          <path d="M 103.309196472168 296.9179992675781 C 103.0657730102539 296.9179992675781 102.8364562988281 297.0132446289063 102.6634826660156 297.1862182617188 L 89.26922607421875 310.5804748535156 C 88.91318511962891 310.9365234375 88.91318511962891 311.515869140625 89.26923370361328 311.8719177246094 C 89.44187927246094 312.0445861816406 89.67119598388672 312.1396484375 89.91493225097656 312.1396484375 C 90.15868377685547 312.1396484375 90.38800811767578 312.0445861816406 90.56065368652344 311.8719177246094 L 103.9549026489258 298.4776306152344 C 104.1278839111328 298.3046875 104.22314453125 298.0753479003906 104.22314453125 297.8319396972656 C 104.22314453125 297.5885314941406 104.1278839111328 297.3591918945313 103.9549026489258 297.1862182617188 C 103.7819366455078 297.0132446289063 103.5526123046875 296.9179992675781 103.309196472168 296.9179992675781 M 103.309196472168 295.9179992675781 C 103.7985610961914 295.9179992675781 104.2879333496094 296.1050415039063 104.6620178222656 296.4791259765625 C 105.4101867675781 297.227294921875 105.4101867675781 298.4365844726563 104.6620178222656 299.1847534179688 L 91.26776885986328 312.5790100097656 C 90.89463806152344 312.9521484375 90.40478515625 313.1396484375 89.91493225097656 313.1396484375 C 89.42509460449219 313.1396484375 88.93524932861328 312.9521484375 88.56211853027344 312.5790100097656 C 87.81395721435547 311.8308410644531 87.81395721435547 310.6215515136719 88.56211853027344 309.8733825683594 L 101.9563751220703 296.4791259765625 C 102.3304595947266 296.1050415039063 102.8198318481445 295.9179992675781 103.309196472168 295.9179992675781 Z" stroke="none" fill="#ecedf2"/>
        </g>
        <g id="Path_3795" data-name="Path 3795" transform="translate(-0.001 -158.188)" fill="#ff283c">
          <path d="M 1.914937257766724 224.6396789550781 C 1.537657260894775 224.6396789550781 1.182777166366577 224.4925842285156 0.9156572222709656 224.2254791259766 C 0.364677220582962 223.6744842529297 0.364677220582962 222.7779388427734 0.9156672358512878 222.2269439697266 L 14.30992698669434 208.8326873779297 C 14.57733726501465 208.5652770996094 14.93221759796143 208.4180145263672 15.30919742584229 208.4180145263672 C 15.68616676330566 208.4180145263672 16.04105758666992 208.5652770996094 16.30846786499023 208.8326873779297 C 16.57586669921875 209.10009765625 16.72313690185547 209.4549713134766 16.72313690185547 209.8319549560547 C 16.72313690185547 210.2089385986328 16.57586669921875 210.5638275146484 16.30845642089844 210.8312377929688 L 2.914207220077515 224.2254943847656 C 2.647097110748291 224.4925842285156 2.292217254638672 224.6396789550781 1.914937257766724 224.6396789550781 Z" stroke="none"/>
          <path d="M 1.914937257766724 224.1396789550781 C 2.158667325973511 224.1396789550781 2.38798713684082 224.0445861816406 2.560647249221802 223.8719329833984 L 15.95490741729736 210.4776763916016 C 16.12787628173828 210.3047027587891 16.22313690185547 210.0753784179688 16.22313690185547 209.8319549560547 C 16.22313690185547 209.5885314941406 16.12787628173828 209.3592071533203 15.95490741729736 209.1862487792969 C 15.78193759918213 209.0132751464844 15.55261707305908 208.9180145263672 15.30919742584229 208.9180145263672 C 15.06577682495117 208.9180145263672 14.83645725250244 209.0132751464844 14.66348743438721 209.1862487792969 L 1.269227266311646 222.5805053710938 C 0.9131772518157959 222.9365386962891 0.9131772518157959 223.5158843994141 1.269207239151001 223.8719177246094 C 1.441887259483337 224.0445861816406 1.671207189559937 224.1396789550781 1.914937257766724 224.1396789550781 M 1.914937257766724 225.1396789550781 C 1.425097227096558 225.1396789550781 0.9352472424507141 224.9521484375 0.5621172189712524 224.5790405273438 C -0.1860427707433701 223.8308715820313 -0.1860427707433701 222.6215515136719 0.5621172189712524 221.8733978271484 L 13.95637702941895 208.4791412353516 C 14.33045768737793 208.1050567626953 14.81982517242432 207.9180145263672 15.30919361114502 207.9180145263672 C 15.79856204986572 207.9180145263672 16.28793144226074 208.1050567626953 16.66201782226563 208.4791412353516 C 17.41017723083496 209.227294921875 17.41017723083496 210.4366149902344 16.66201782226563 211.1847839355469 L 3.267757177352905 224.5790405273438 C 2.894637107849121 224.9521484375 2.404787302017212 225.1396789550781 1.914937257766724 225.1396789550781 Z" stroke="none" fill="#ecedf2"/>
        </g>
      </g>
    </g>
  </g>
</svg>
