<svg xmlns="http://www.w3.org/2000/svg" width="47.999" height="48" viewBox="0 0 47.999 48">
  <g id="asset-discovery" transform="translate(-121 -4698)">
    <g id="technology" transform="translate(120.995 4698)">
      <path id="Path_3742" data-name="Path 3742" d="M47.143,17.608a.713.713,0,0,0-1.374.379A22.567,22.567,0,1,1,43.6,12.782l-3.789,2.013a18.277,18.277,0,0,0-27.737-4.657A3.337,3.337,0,0,0,7.93,15.268a18.279,18.279,0,0,0,5.915,23.943.713.713,0,1,0,.793-1.185A16.85,16.85,0,0,1,9.1,16.1a3.337,3.337,0,0,0,4.031-4.992,16.85,16.85,0,0,1,25.417,4.356L34.77,17.473a12.591,12.591,0,0,0-22.452,11.22,3.337,3.337,0,0,0,3.988,5.268,12.589,12.589,0,0,0,19.135-15.23l3.782-2.009a16.681,16.681,0,0,1,1.351,4.1,3.338,3.338,0,0,0,0,6.361A16.9,16.9,0,0,1,24,40.871a16.713,16.713,0,0,1-6.75-1.41.713.713,0,1,0-.572,1.306,18.275,18.275,0,0,0,19.312-2.957A18.318,18.318,0,0,0,42,27.313a3.338,3.338,0,0,0,0-6.625,18.1,18.1,0,0,0-1.516-4.635l3.787-2.012q.279.567.528,1.154a.713.713,0,0,0,1.313-.557,23.954,23.954,0,1,0,1.033,2.97ZM10.4,14.938a1.913,1.913,0,1,1,1.913-1.913A1.915,1.915,0,0,1,10.4,14.938ZM43.5,24a1.913,1.913,0,1,1-1.913-1.913A1.915,1.915,0,0,1,43.5,24ZM12.776,31.042a1.913,1.913,0,1,1,1.913,1.913A1.915,1.915,0,0,1,12.776,31.042ZM35.172,24a11.162,11.162,0,0,1-17.779,9,3.338,3.338,0,0,0-3.852-5.089A11.062,11.062,0,0,1,12.837,24a11.165,11.165,0,0,1,20.673-5.857l-3.79,2.014a6.967,6.967,0,0,0-2.38-2.185c0-.05,0-.1,0-.15a3.339,3.339,0,0,0-6.677,0c0,.05,0,.1,0,.15a6.892,6.892,0,1,0,9.721,3.443L34.18,19.4a11.178,11.178,0,0,1,.992,4.6Zm-5.7,0a5.465,5.465,0,1,1-8.407-4.6,3.337,3.337,0,0,0,5.885,0,5.535,5.535,0,0,1,1.505,1.432L23.67,23.371a.713.713,0,1,0,.669,1.259l4.783-2.541A5.472,5.472,0,0,1,29.469,24ZM24,19.735a1.913,1.913,0,1,1,1.913-1.913A1.915,1.915,0,0,1,24,19.735Z" transform="translate(0)" fill="#ff283c"/>
    </g>
  </g>
</svg>
