<svg id="Group_3562" data-name="Group 3562" xmlns="http://www.w3.org/2000/svg" width="198.649" height="117.667" viewBox="0 0 198.649 117.667">
  <g id="Group_3495" data-name="Group 3495" transform="translate(0 56.209)">
    <path id="Path_3683" data-name="Path 3683" d="M21.526,23.068a2.544,2.544,0,1,0,2.543,2.543A2.546,2.546,0,0,0,21.526,23.068Z" transform="translate(-18.982 -23.068)" fill="#161414"/>
    <path id="Path_3684" data-name="Path 3684" d="M49.663,23.068a2.544,2.544,0,1,0,2.543,2.543A2.546,2.546,0,0,0,49.663,23.068Z" transform="translate(-19.468 -23.068)" fill="#161414"/>
    <path id="Path_3685" data-name="Path 3685" d="M77.8,23.068a2.544,2.544,0,1,0,2.543,2.543A2.546,2.546,0,0,0,77.8,23.068Z" transform="translate(-19.953 -23.068)" fill="#161414"/>
    <path id="Path_3686" data-name="Path 3686" d="M105.938,23.068a2.544,2.544,0,1,0,2.543,2.543A2.546,2.546,0,0,0,105.938,23.068Z" transform="translate(-20.439 -23.068)" fill="#161414"/>
    <path id="Path_3687" data-name="Path 3687" d="M134.075,23.068a2.544,2.544,0,1,0,2.543,2.543A2.546,2.546,0,0,0,134.075,23.068Z" transform="translate(-20.925 -23.068)" fill="#001323"/>
    <path id="Path_3688" data-name="Path 3688" d="M162.213,23.068a2.544,2.544,0,1,0,2.543,2.543A2.546,2.546,0,0,0,162.213,23.068Z" transform="translate(-21.411 -23.068)" fill="#001323"/>
    <path id="Path_3689" data-name="Path 3689" d="M190.35,23.068a2.544,2.544,0,1,0,2.543,2.543A2.546,2.546,0,0,0,190.35,23.068Z" transform="translate(-21.896 -23.068)" fill="#ff283c"/>
    <path id="Path_3690" data-name="Path 3690" d="M218.488,28.156a2.544,2.544,0,1,0-2.544-2.544A2.546,2.546,0,0,0,218.488,28.156Z" transform="translate(-22.382 -23.068)" fill="#ff283c"/>
    <path id="Path_3691" data-name="Path 3691" d="M21.526,42.528a2.543,2.543,0,1,0,2.543,2.543A2.546,2.546,0,0,0,21.526,42.528Z" transform="translate(-18.982 -23.737)" fill="#161414"/>
    <path id="Path_3692" data-name="Path 3692" d="M49.663,42.528a2.543,2.543,0,1,0,2.543,2.543A2.546,2.546,0,0,0,49.663,42.528Z" transform="translate(-19.468 -23.737)" fill="#161414"/>
    <path id="Path_3693" data-name="Path 3693" d="M77.8,42.528a2.543,2.543,0,1,0,2.543,2.543A2.546,2.546,0,0,0,77.8,42.528Z" transform="translate(-19.953 -23.737)" fill="#161414"/>
    <path id="Path_3694" data-name="Path 3694" d="M105.938,42.528a2.543,2.543,0,1,0,2.543,2.543A2.546,2.546,0,0,0,105.938,42.528Z" transform="translate(-20.439 -23.737)" fill="#161414"/>
    <path id="Path_3695" data-name="Path 3695" d="M134.075,42.528a2.543,2.543,0,1,0,2.543,2.543A2.546,2.546,0,0,0,134.075,42.528Z" transform="translate(-20.925 -23.737)" fill="#ff283c"/>
    <path id="Path_3696" data-name="Path 3696" d="M162.213,42.528a2.543,2.543,0,1,0,2.543,2.543A2.546,2.546,0,0,0,162.213,42.528Z" transform="translate(-21.411 -23.737)" fill="#ff283c"/>
    <path id="Path_3697" data-name="Path 3697" d="M190.35,42.528a2.543,2.543,0,1,0,2.543,2.543A2.546,2.546,0,0,0,190.35,42.528Z" transform="translate(-21.896 -23.737)" fill="#ff283c"/>
    <path id="Path_3698" data-name="Path 3698" d="M218.488,42.528a2.543,2.543,0,1,0,2.543,2.543A2.546,2.546,0,0,0,218.488,42.528Z" transform="translate(-22.382 -23.737)" fill="#ff283c"/>
    <path id="Path_3699" data-name="Path 3699" d="M21.526,61.987A2.543,2.543,0,1,0,24.07,64.53,2.546,2.546,0,0,0,21.526,61.987Z" transform="translate(-18.982 -24.407)" fill="#161414"/>
    <path id="Path_3700" data-name="Path 3700" d="M49.663,61.987a2.543,2.543,0,1,0,2.543,2.543A2.546,2.546,0,0,0,49.663,61.987Z" transform="translate(-19.468 -24.407)" fill="#161414"/>
    <path id="Path_3701" data-name="Path 3701" d="M77.8,61.987a2.543,2.543,0,1,0,2.543,2.543A2.546,2.546,0,0,0,77.8,61.987Z" transform="translate(-19.953 -24.407)" fill="#161414"/>
    <path id="Path_3702" data-name="Path 3702" d="M105.938,61.987a2.543,2.543,0,1,0,2.543,2.543A2.546,2.546,0,0,0,105.938,61.987Z" transform="translate(-20.439 -24.407)" fill="#161414"/>
    <path id="Path_3703" data-name="Path 3703" d="M134.075,61.987a2.543,2.543,0,1,0,2.543,2.543A2.546,2.546,0,0,0,134.075,61.987Z" transform="translate(-20.925 -24.407)" fill="#ff283c"/>
    <path id="Path_3704" data-name="Path 3704" d="M162.213,61.987a2.543,2.543,0,1,0,2.543,2.543A2.546,2.546,0,0,0,162.213,61.987Z" transform="translate(-21.411 -24.407)" fill="#001323"/>
    <path id="Path_3705" data-name="Path 3705" d="M190.35,61.987a2.543,2.543,0,1,0,2.543,2.543A2.546,2.546,0,0,0,190.35,61.987Z" transform="translate(-21.896 -24.407)" fill="#ff283c"/>
    <path id="Path_3706" data-name="Path 3706" d="M218.488,61.987a2.543,2.543,0,1,0,2.543,2.543A2.546,2.546,0,0,0,218.488,61.987Z" transform="translate(-22.382 -24.407)" fill="#ff283c"/>
    <path id="Path_3707" data-name="Path 3707" d="M21.526,81.446A2.544,2.544,0,1,0,24.07,83.99,2.547,2.547,0,0,0,21.526,81.446Z" transform="translate(-18.982 -25.076)" fill="#161414"/>
    <path id="Path_3708" data-name="Path 3708" d="M49.663,81.446a2.544,2.544,0,1,0,2.543,2.544A2.546,2.546,0,0,0,49.663,81.446Z" transform="translate(-19.468 -25.076)" fill="#161414"/>
    <path id="Path_3709" data-name="Path 3709" d="M77.8,81.446a2.544,2.544,0,1,0,2.543,2.544A2.547,2.547,0,0,0,77.8,81.446Z" transform="translate(-19.953 -25.076)" fill="#161414"/>
    <path id="Path_3710" data-name="Path 3710" d="M105.938,81.446a2.544,2.544,0,1,0,2.543,2.544A2.546,2.546,0,0,0,105.938,81.446Z" transform="translate(-20.439 -25.076)" fill="#161414"/>
    <path id="Path_3711" data-name="Path 3711" d="M134.075,81.446a2.544,2.544,0,1,0,2.543,2.544A2.546,2.546,0,0,0,134.075,81.446Z" transform="translate(-20.925 -25.076)" fill="#001323"/>
    <path id="Path_3712" data-name="Path 3712" d="M162.213,81.446a2.544,2.544,0,1,0,2.543,2.544A2.547,2.547,0,0,0,162.213,81.446Z" transform="translate(-21.411 -25.076)" fill="#ff283c"/>
    <path id="Path_3713" data-name="Path 3713" d="M190.35,81.446a2.544,2.544,0,1,0,2.543,2.544A2.546,2.546,0,0,0,190.35,81.446Z" transform="translate(-21.896 -25.076)" fill="#ff283c"/>
    <path id="Path_3714" data-name="Path 3714" d="M218.488,81.446a2.544,2.544,0,1,0,2.543,2.544A2.547,2.547,0,0,0,218.488,81.446Z" transform="translate(-22.382 -25.076)" fill="#ff283c"/>
  </g>
  <g id="Group_3561" data-name="Group 3561" transform="translate(0 0)">
    <path id="Path_3691-2" data-name="Path 3691" d="M21.526,42.528a2.543,2.543,0,1,0,2.543,2.543A2.546,2.546,0,0,0,21.526,42.528Z" transform="translate(-18.982 -42.528)" fill="#161414"/>
    <path id="Path_3692-2" data-name="Path 3692" d="M49.663,42.528a2.543,2.543,0,1,0,2.543,2.543A2.546,2.546,0,0,0,49.663,42.528Z" transform="translate(-19.468 -42.528)" fill="#161414"/>
    <path id="Path_3693-2" data-name="Path 3693" d="M77.8,42.528a2.543,2.543,0,1,0,2.543,2.543A2.546,2.546,0,0,0,77.8,42.528Z" transform="translate(-19.953 -42.528)" fill="#161414"/>
    <path id="Path_3694-2" data-name="Path 3694" d="M105.938,42.528a2.543,2.543,0,1,0,2.543,2.543A2.546,2.546,0,0,0,105.938,42.528Z" transform="translate(-20.439 -42.528)" fill="#161414"/>
    <path id="Path_3695-2" data-name="Path 3695" d="M134.075,42.528a2.543,2.543,0,1,0,2.543,2.543A2.546,2.546,0,0,0,134.075,42.528Z" transform="translate(-20.925 -42.528)" fill="#ff283c"/>
    <path id="Path_3696-2" data-name="Path 3696" d="M162.213,42.528a2.543,2.543,0,1,0,2.543,2.543A2.546,2.546,0,0,0,162.213,42.528Z" transform="translate(-21.411 -42.528)" fill="#001323"/>
    <path id="Path_3697-2" data-name="Path 3697" d="M190.35,42.528a2.543,2.543,0,1,0,2.543,2.543A2.546,2.546,0,0,0,190.35,42.528Z" transform="translate(-21.896 -42.528)" fill="#ff283c"/>
    <path id="Path_3698-2" data-name="Path 3698" d="M218.488,42.528a2.543,2.543,0,1,0,2.543,2.543A2.546,2.546,0,0,0,218.488,42.528Z" transform="translate(-22.382 -42.528)" fill="#ff283c"/>
    <path id="Path_3699-2" data-name="Path 3699" d="M21.526,61.987A2.543,2.543,0,1,0,24.07,64.53,2.546,2.546,0,0,0,21.526,61.987Z" transform="translate(-18.982 -43.197)" fill="#161414"/>
    <path id="Path_3700-2" data-name="Path 3700" d="M49.663,61.987a2.543,2.543,0,1,0,2.543,2.543A2.546,2.546,0,0,0,49.663,61.987Z" transform="translate(-19.468 -43.197)" fill="#161414"/>
    <path id="Path_3701-2" data-name="Path 3701" d="M77.8,61.987a2.543,2.543,0,1,0,2.543,2.543A2.546,2.546,0,0,0,77.8,61.987Z" transform="translate(-19.953 -43.197)" fill="#161414"/>
    <path id="Path_3702-2" data-name="Path 3702" d="M105.938,61.987a2.543,2.543,0,1,0,2.543,2.543A2.546,2.546,0,0,0,105.938,61.987Z" transform="translate(-20.439 -43.197)" fill="#161414"/>
    <path id="Path_3703-2" data-name="Path 3703" d="M134.075,61.987a2.543,2.543,0,1,0,2.543,2.543A2.546,2.546,0,0,0,134.075,61.987Z" transform="translate(-20.925 -43.197)" fill="#001323"/>
    <path id="Path_3704-2" data-name="Path 3704" d="M162.213,61.987a2.543,2.543,0,1,0,2.543,2.543A2.546,2.546,0,0,0,162.213,61.987Z" transform="translate(-21.411 -43.197)" fill="#ff283c"/>
    <path id="Path_3705-2" data-name="Path 3705" d="M190.35,61.987a2.543,2.543,0,1,0,2.543,2.543A2.546,2.546,0,0,0,190.35,61.987Z" transform="translate(-21.896 -43.197)" fill="#ff283c"/>
    <path id="Path_3706-2" data-name="Path 3706" d="M218.488,61.987a2.543,2.543,0,1,0,2.543,2.543A2.546,2.546,0,0,0,218.488,61.987Z" transform="translate(-22.382 -43.197)" fill="#ff283c"/>
    <path id="Path_3707-2" data-name="Path 3707" d="M21.526,81.446A2.544,2.544,0,1,0,24.07,83.99,2.547,2.547,0,0,0,21.526,81.446Z" transform="translate(-18.982 -43.867)" fill="#161414"/>
    <path id="Path_3708-2" data-name="Path 3708" d="M49.663,81.446a2.544,2.544,0,1,0,2.543,2.544A2.546,2.546,0,0,0,49.663,81.446Z" transform="translate(-19.468 -43.867)" fill="#161414"/>
    <path id="Path_3709-2" data-name="Path 3709" d="M77.8,81.446a2.544,2.544,0,1,0,2.543,2.544A2.547,2.547,0,0,0,77.8,81.446Z" transform="translate(-19.953 -43.867)" fill="#161414"/>
    <path id="Path_3710-2" data-name="Path 3710" d="M105.938,81.446a2.544,2.544,0,1,0,2.543,2.544A2.546,2.546,0,0,0,105.938,81.446Z" transform="translate(-20.439 -43.867)" fill="#161414"/>
    <path id="Path_3711-2" data-name="Path 3711" d="M134.075,81.446a2.544,2.544,0,1,0,2.543,2.544A2.546,2.546,0,0,0,134.075,81.446Z" transform="translate(-20.925 -43.867)" fill="#ff283c"/>
    <path id="Path_3712-2" data-name="Path 3712" d="M162.213,81.446a2.544,2.544,0,1,0,2.543,2.544A2.547,2.547,0,0,0,162.213,81.446Z" transform="translate(-21.411 -43.867)" fill="#ff283c"/>
    <path id="Path_3713-2" data-name="Path 3713" d="M190.35,81.446a2.544,2.544,0,1,0,2.543,2.544A2.546,2.546,0,0,0,190.35,81.446Z" transform="translate(-21.896 -43.867)" fill="#ff283c"/>
    <path id="Path_3714-2" data-name="Path 3714" d="M218.488,81.446a2.544,2.544,0,1,0,2.543,2.544A2.547,2.547,0,0,0,218.488,81.446Z" transform="translate(-22.382 -43.867)" fill="#ff283c"/>
  </g>
</svg>
