<svg xmlns="http://www.w3.org/2000/svg" width="117" height="116.999" viewBox="0 0 117 116.999">
  <g id="Group_3494" data-name="Group 3494" transform="translate(0.5 0.5)">
    <path id="Path_3682" data-name="Path 3682" d="M369.084,212.538a58,58,0,1,1,58-58" transform="translate(-311.085 -96.539)" fill="none" stroke="#001323" stroke-linecap="round" stroke-miterlimit="10" stroke-width="1"/>
    <path id="Path_3716" data-name="Path 3716" d="M24.225,48.451A24.225,24.225,0,1,1,48.451,24.226" transform="matrix(-0.259, -0.966, 0.966, -0.259, 40.959, 87.759)" fill="none" stroke="#ff283c" stroke-linecap="round" stroke-miterlimit="10" stroke-width="2"/>
    <path id="Path_3718" data-name="Path 3718" d="M33.22,66.44A33.22,33.22,0,1,1,66.441,33.22" transform="translate(12.71 70.248) rotate(-60)" fill="none" stroke="#001323" stroke-linecap="round" stroke-miterlimit="10" stroke-width="2"/>
    <path id="Path_3719" data-name="Path 3719" d="M44.588,89.177a44.589,44.589,0,1,1,44.59-44.588" transform="matrix(0.259, -0.966, 0.966, 0.259, 3.479, 89.618)" fill="none" stroke="#ff283c" stroke-linecap="round" stroke-miterlimit="10" stroke-width="1"/>
    <path id="Path_3717" data-name="Path 3717" d="M15.422,30.845A15.422,15.422,0,1,1,30.845,15.423" transform="translate(52.853 36.599) rotate(30)" fill="none" stroke="#001323" stroke-linecap="round" stroke-miterlimit="10" stroke-width="2"/>
  </g>
</svg>
