<svg xmlns="http://www.w3.org/2000/svg" width="64" height="60.796" viewBox="0 0 64 60.796">
  <g id="communications" transform="translate(-0.001 -12.813)">
    <g id="Group_3619" data-name="Group 3619" transform="translate(0.001 12.813)">
      <g id="Group_3618" data-name="Group 3618" transform="translate(0 0)">
        <path id="Path_3796" data-name="Path 3796" d="M61.28,12.813h-44.7a2.724,2.724,0,0,0-2.721,2.721V27.864L11.811,24.8a3.161,3.161,0,0,0-4.268-.96L3.338,26.366A6.171,6.171,0,0,0,.519,30.023c-1.534,5.587-.4,15.211,13.731,29.341C25.485,70.586,33.861,73.609,39.634,73.609a14.906,14.906,0,0,0,3.958-.516,6.182,6.182,0,0,0,3.657-2.816l2.525-4.21a3.161,3.161,0,0,0-.96-4.262L38.745,55.091a3.178,3.178,0,0,0-4.255.69l-2.932,3.769a1.021,1.021,0,0,1-1.306.276l-.558-.307c-1.836-1-4.122-2.247-8.737-6.862-.5-.5-.952-.967-1.376-1.414h41.7A2.719,2.719,0,0,0,64,48.536v-33A2.724,2.724,0,0,0,61.28,12.813ZM28.673,61.394l.542.3a3.143,3.143,0,0,0,4.028-.83l2.932-3.769a1.037,1.037,0,0,1,1.387-.225L47.632,63.58a1.031,1.031,0,0,1,.313,1.387l-2.525,4.21a4.054,4.054,0,0,1-2.391,1.856c-5.043,1.387-13.87.213-27.266-13.184S1.2,35.626,2.58,30.587A4.054,4.054,0,0,1,4.435,28.2l4.21-2.526a1.032,1.032,0,0,1,1.387.313l6.716,10.071a1.036,1.036,0,0,1-.225,1.387l-3.771,2.933a3.142,3.142,0,0,0-.83,4.027l.3.542c1.067,1.957,2.393,4.391,7.227,9.225S26.717,60.327,28.673,61.394ZM61.867,48.536a.583.583,0,0,1-.587.576H17.656a26.907,26.907,0,0,1-3.56-5.19l-.307-.56a1.018,1.018,0,0,1,.275-1.3l3.771-2.933a3.177,3.177,0,0,0,.69-4.255l-2.535-3.8V15.534a.58.58,0,0,1,.587-.587h44.7a.58.58,0,0,1,.587.587v33Z" transform="translate(-0.001 -12.813)" fill="#ff283c"/>
        <path id="Path_3797" data-name="Path 3797" d="M187.375,50.8,169.543,64.328a1.439,1.439,0,0,1-1.692,0L150.026,50.8a1.067,1.067,0,1,0-1.29,1.7l17.827,13.522a3.591,3.591,0,0,0,4.268,0l17.833-13.522a1.067,1.067,0,0,0-1.289-1.7Z" transform="translate(-129.77 -45.865)" fill="#ff283c"/>
        <path id="Path_3798" data-name="Path 3798" d="M160.026,172.709l-10.93,11.7a1.067,1.067,0,1,0,1.561,1.455l10.93-11.71a1.067,1.067,0,0,0-1.561-1.45Z" transform="translate(-130.204 -152.456)" fill="#ff283c"/>
        <path id="Path_3799" data-name="Path 3799" d="M371.8,172.418a1.067,1.067,0,1,0-1.561,1.455l10.926,11.7a1.067,1.067,0,0,0,1.561-1.455Z" transform="translate(-323.696 -152.165)" fill="#ff283c"/>
      </g>
    </g>
  </g>
</svg>
