<svg xmlns="http://www.w3.org/2000/svg" width="43" height="48.807" viewBox="0 0 43 48.807">
  <g id="cost-saving" transform="translate(-0.36)">
    <path id="Path_3784" data-name="Path 3784" d="M189.523,158.926a.762.762,0,0,0-.274-.009,1.82,1.82,0,0,1-1.61-1.8.8.8,0,1,0-1.6,0,3.425,3.425,0,0,0,2.518,3.3v.8a.8.8,0,0,0,1.6,0v-.752a3.419,3.419,0,0,0-.7-6.765,1.818,1.818,0,1,1,1.818-1.818.8.8,0,1,0,1.6,0,3.425,3.425,0,0,0-2.718-3.347V147.8a.8.8,0,0,0-1.6,0v.778a3.418,3.418,0,0,0,.9,6.716,1.817,1.817,0,0,1,.066,3.632Zm0,0" transform="translate(-167.097 -132.29)" fill="#ff283c"/>
    <path id="Path_3785" data-name="Path 3785" d="M104.195,118.1A11.609,11.609,0,1,0,115.8,106.492,11.609,11.609,0,0,0,104.195,118.1ZM115.8,108.093A10.008,10.008,0,1,1,105.8,118.1,10.008,10.008,0,0,1,115.8,108.093Zm0,0" transform="translate(-93.444 -95.835)" fill="#ff283c"/>
    <path id="Path_3786" data-name="Path 3786" d="M37.916,329.546l-6.271,2.963a5.108,5.108,0,0,0-4.355-2.687l-5.789-.159a6.115,6.115,0,0,1-2.631-.679l-.589-.305a10.391,10.391,0,0,0-9.625.01l.037-1.335a.8.8,0,0,0-.778-.822l-6.348-.175a.8.8,0,0,0-.822.778L.36,341.066a.8.8,0,0,0,.778.822l6.348.175h.022a.8.8,0,0,0,.8-.779l.018-.666,1.649-.883a2.829,2.829,0,0,1,2.111-.231l9.848,2.764.052.013a10.545,10.545,0,0,0,2.164.223,10.682,10.682,0,0,0,4.462-.974.745.745,0,0,0,.1-.055l14.279-9.236a.8.8,0,0,0,.262-1.066,4.044,4.044,0,0,0-5.341-1.627ZM1.983,340.31l.339-12.331,4.748.131L6.73,340.441Zm25.911-.21a9.077,9.077,0,0,1-5.551.62l-9.822-2.757a4.427,4.427,0,0,0-3.3.361l-.843.451.226-8.2a8.8,8.8,0,0,1,8.94-.477l.589.305a7.733,7.733,0,0,0,3.323.858l5.79.159a3.511,3.511,0,0,1,3.337,2.8l-8.624-.238a.8.8,0,0,0-.044,1.6l9.517.262h.022a.8.8,0,0,0,.8-.779,5.08,5.08,0,0,0-.077-1.039l6.432-3.039.019-.009a2.446,2.446,0,0,1,2.766.387Zm0,0" transform="translate(0 -293.697)" fill="#ff283c"/>
    <path id="Path_3787" data-name="Path 3787" d="M213.8,8.406V.8a.8.8,0,1,0-1.6,0V8.406a.8.8,0,1,0,1.6,0Zm0,0" transform="translate(-190.644)" fill="#ff283c"/>
    <path id="Path_3788" data-name="Path 3788" d="M273.8,44.4V40.8a.8.8,0,0,0-1.6,0v3.6a.8.8,0,0,0,1.6,0Zm0,0" transform="translate(-244.639 -35.997)" fill="#ff283c"/>
    <path id="Path_3789" data-name="Path 3789" d="M153.8,44.4V40.8a.8.8,0,0,0-1.6,0v3.6a.8.8,0,0,0,1.6,0Zm0,0" transform="translate(-136.648 -35.997)" fill="#ff283c"/>
  </g>
</svg>
