<svg xmlns="http://www.w3.org/2000/svg" width="48" height="42.845" viewBox="0 0 48 42.845">
  <g id="gap-analysis" transform="translate(0 -27.49)">
    <g id="Group_3580" data-name="Group 3580" transform="translate(0 27.49)">
      <g id="Group_3579" data-name="Group 3579">
        <path id="Path_3751" data-name="Path 3751" d="M45.477,27.49H2.523A2.526,2.526,0,0,0,0,30.013V60.94a2.526,2.526,0,0,0,2.523,2.523H18.792l-.658,5.262H15.409a.805.805,0,1,0,0,1.611H32.591a.805.805,0,1,0,0-1.611H29.865l-.658-5.262H45.477A2.526,2.526,0,0,0,48,60.94V30.013A2.526,2.526,0,0,0,45.477,27.49ZM19.758,68.725l.658-5.262h7.169l.658,5.262ZM46.389,60.94a.914.914,0,0,1-.913.913H2.523a.914.914,0,0,1-.913-.913V30.013a.914.914,0,0,1,.913-.913H45.477a.914.914,0,0,1,.913.913V60.94Z" transform="translate(0 -27.49)" fill="#ff283c"/>
      </g>
    </g>
    <g id="Group_3582" data-name="Group 3582" transform="translate(3.436 30.926)">
      <g id="Group_3581" data-name="Group 3581">
        <path id="Path_3752" data-name="Path 3752" d="M70.962,64.143h-33.5a.805.805,0,0,0-.805.805V91.579a.805.805,0,0,0,.805.805h2.577a.805.805,0,1,0,0-1.611H38.264V65.754h32.7a.805.805,0,1,0,0-1.611Z" transform="translate(-36.653 -64.143)" fill="#ff283c"/>
      </g>
    </g>
    <g id="Group_3584" data-name="Group 3584" transform="translate(9.449 30.926)">
      <g id="Group_3583" data-name="Group 3583">
        <path id="Path_3753" data-name="Path 3753" d="M135.1,64.143h-2.577a.805.805,0,0,0,0,1.611H134.3v25.02H101.6a.805.805,0,0,0,0,1.611h33.5a.805.805,0,0,0,.805-.805V64.948A.805.805,0,0,0,135.1,64.143Z" transform="translate(-100.794 -64.143)" fill="#ff283c"/>
      </g>
    </g>
    <g id="Group_3586" data-name="Group 3586" transform="translate(6.873 35.222)">
      <g id="Group_3585" data-name="Group 3585">
        <path id="Path_3754" data-name="Path 3754" d="M105.038,109.96a2.522,2.522,0,0,0-2.227,3.709L96.358,120.5a2.516,2.516,0,0,0-2.791.461l-5.511-2.918a2.523,2.523,0,1,0-4.767.68l-6.3,6.119A2.522,2.522,0,1,0,78.107,126l6.3-6.119a2.516,2.516,0,0,0,2.889-.413l5.511,2.918a2.523,2.523,0,1,0,5.014.407,2.507,2.507,0,0,0-.3-1.185l6.453-6.833a2.523,2.523,0,1,0,1.056-4.815ZM75.83,128a.913.913,0,1,1,.913-.913A.914.914,0,0,1,75.83,128Zm9.736-9.45a.913.913,0,1,1,.913-.913A.914.914,0,0,1,85.567,118.551ZM95.3,123.7a.913.913,0,1,1,.913-.913A.914.914,0,0,1,95.3,123.7Zm9.736-10.309a.913.913,0,1,1,.913-.913A.914.914,0,0,1,105.038,113.4Z" transform="translate(-73.307 -109.96)" fill="#ff283c"/>
      </g>
    </g>
    <g id="Group_3588" data-name="Group 3588" transform="translate(37.799 42.094)">
      <g id="Group_3587" data-name="Group 3587">
        <path id="Path_3755" data-name="Path 3755" d="M403.99,183.266a.805.805,0,0,0-.805.805V196.1a.805.805,0,0,0,1.611,0V184.071A.805.805,0,0,0,403.99,183.266Z" transform="translate(-403.185 -183.266)" fill="#ff283c"/>
      </g>
    </g>
    <g id="Group_3590" data-name="Group 3590" transform="translate(18.327 47.248)">
      <g id="Group_3589" data-name="Group 3589">
        <path id="Path_3756" data-name="Path 3756" d="M196.289,238.246a.805.805,0,0,0-.805.805v6.873a.805.805,0,0,0,1.611,0v-6.873A.805.805,0,0,0,196.289,238.246Z" transform="translate(-195.484 -238.246)" fill="#ff283c"/>
      </g>
    </g>
    <g id="Group_3592" data-name="Group 3592" transform="translate(28.063 52.403)">
      <g id="Group_3591" data-name="Group 3591">
        <path id="Path_3757" data-name="Path 3757" d="M300.139,293.226a.805.805,0,0,0-.805.805v1.718a.805.805,0,1,0,1.611,0v-1.718A.805.805,0,0,0,300.139,293.226Z" transform="translate(-299.334 -293.226)" fill="#ff283c"/>
      </g>
    </g>
  </g>
</svg>
