<svg xmlns="http://www.w3.org/2000/svg" width="49" height="48.705" viewBox="0 0 49 48.705">
  <g id="increased-productivity" transform="translate(-570 -5066)">
    <path id="Path_3780" data-name="Path 3780" d="M45.648,292l-16.592,4.176a3.115,3.115,0,0,0-.789-1.333l-5.286-5.286a3.449,3.449,0,0,0-2.454-1.016H9.982a3.64,3.64,0,0,0-3.614-3.237H3.635A3.639,3.639,0,0,0,0,288.94v7.316a.72.72,0,0,0,1.44,0V288.94a2.2,2.2,0,0,1,2.2-2.2H6.369a2.2,2.2,0,0,1,2.159,1.8c.053.287.037-.573.037,13.168a2.2,2.2,0,0,1-2.2,2.2H3.635a2.2,2.2,0,0,1-2.2-2.2v-2.575a.72.72,0,0,0-1.44,0v2.575a3.639,3.639,0,0,0,3.635,3.636H6.369A3.639,3.639,0,0,0,10,301.71v-1.274c5.3.916,4.16.582,12.061,4.448,1.284.628,2.522,1.821,5.141,1.821a7.384,7.384,0,0,0,3.94-1.137l13.691-6.942a.72.72,0,0,0-.651-1.284c-.049.025-13.736,6.962-13.782,6.992a5.947,5.947,0,0,1-3.2.931c-2.184,0-3.132-1-4.509-1.675-8.033-3.93-6.892-3.613-12.694-4.615v-8.994H20.527a2.017,2.017,0,0,1,1.437.6l5.285,5.285a1.611,1.611,0,1,1-2.241,2.316l-4.761-4.763a.72.72,0,1,0-1.018,1.018L23.99,299.2a3.04,3.04,0,0,0,5.134-1.551c17.788-4.478,16.806-4.245,16.984-4.245a1.4,1.4,0,0,1,.646,2.641.72.72,0,1,0,.651,1.284,2.809,2.809,0,0,0,1.544-2.519,2.845,2.845,0,0,0-3.3-2.8Zm0,0" transform="translate(570.001 4808)" fill="#ff283c"/>
    <path id="Path_3781" data-name="Path 3781" d="M26.73,417.417a2.444,2.444,0,1,0,3.409-2.246.72.72,0,0,0-.569,1.323,1,1,0,1,1-1.354.619c.31-.978-1.486-1.628-1.486.3Zm0,0" transform="translate(545.828 4690.615)" fill="#ff283c"/>
    <path id="Path_3782" data-name="Path 3782" d="M216.319,17.7l-3.471-1.263a11.025,11.025,0,0,0,0-1.238l3.47-1.263a1.465,1.465,0,0,0,.876-1.879l-1.179-3.239a1.468,1.468,0,0,0-1.879-.876L210.667,9.2a11.121,11.121,0,0,0-.8-.948l1.847-3.2a1.468,1.468,0,0,0-.536-2L208.2,1.329a1.465,1.465,0,0,0-2,.536l-1.846,3.2a10.97,10.97,0,0,0-1.22-.213l-.641-3.637a1.468,1.468,0,0,0-1.7-1.189l-3.394.6a1.467,1.467,0,0,0-1.189,1.7l.641,3.636a11.09,11.09,0,0,0-1.073.621L192.946,4.2a1.464,1.464,0,0,0-2.065.181l-2.215,2.64a1.465,1.465,0,0,0,.181,2.065l2.828,2.373a11.029,11.029,0,0,0-.424,1.165h-3.691a1.467,1.467,0,0,0-1.465,1.466v3.446A1.467,1.467,0,0,0,187.559,19h3.691a11,11,0,0,0,.424,1.165l-2.828,2.372a1.468,1.468,0,0,0-.181,2.065l2.215,2.64a1.468,1.468,0,0,0,2.065.181l2.829-2.374a11.091,11.091,0,0,0,1.073.621l-.641,3.636a1.465,1.465,0,0,0,1.189,1.7l3.394.6a1.467,1.467,0,0,0,1.7-1.189l.641-3.637a10.991,10.991,0,0,0,1.221-.213l1.846,3.2a1.467,1.467,0,0,0,2,.537l2.985-1.723a1.467,1.467,0,0,0,.536-2l-1.847-3.2a11.063,11.063,0,0,0,.8-.948l3.47,1.263a1.465,1.465,0,0,0,1.879-.876l1.179-3.238a1.465,1.465,0,0,0-.876-1.879Zm-.477,1.386-1.179,3.239a.024.024,0,0,1-.014.015.023.023,0,0,1-.02,0l-3.985-1.451a.72.72,0,0,0-.844.275,9.657,9.657,0,0,1-1.326,1.579.72.72,0,0,0-.125.879l2.121,3.674a.026.026,0,0,1-.009.036l-2.985,1.723a.026.026,0,0,1-.036-.009l-2.12-3.672a.719.719,0,0,0-.823-.332,9.6,9.6,0,0,1-2.03.356.72.72,0,0,0-.661.593l-.736,4.178a.027.027,0,0,1-.031.021c-.04-.007-3.422-.589-3.415-.629l.736-4.176a.72.72,0,0,0-.418-.783,9.633,9.633,0,0,1-1.784-1.032.72.72,0,0,0-.888.029l-3.25,2.727a.026.026,0,0,1-.037,0l-2.215-2.64a.026.026,0,0,1,0-.037l3.248-2.726a.719.719,0,0,0,.183-.869,9.546,9.546,0,0,1-.7-1.937.719.719,0,0,0-.7-.548h-4.24a.026.026,0,0,1-.026-.026V14.09a.026.026,0,0,1,.026-.026h4.24a.72.72,0,0,0,.7-.548,9.551,9.551,0,0,1,.7-1.936.719.719,0,0,0-.183-.87l-3.248-2.726a.023.023,0,0,1-.009-.018.023.023,0,0,1,.006-.019l2.215-2.64A.026.026,0,0,1,192,5.3a.025.025,0,0,1,.019.006l3.25,2.727a.719.719,0,0,0,.888.03,9.592,9.592,0,0,1,1.784-1.032.72.72,0,0,0,.418-.783l-.736-4.176a.026.026,0,0,1,.021-.03l3.394-.6a.024.024,0,0,1,.019,0,.024.024,0,0,1,.011.017l.736,4.178a.72.72,0,0,0,.661.593,9.593,9.593,0,0,1,2.03.356.72.72,0,0,0,.824-.331l2.12-3.672a.024.024,0,0,1,.016-.012.023.023,0,0,1,.02,0L210.462,4.3a.027.027,0,0,1,.01.036L208.35,8.008a.72.72,0,0,0,.125.879,9.67,9.67,0,0,1,1.326,1.579.72.72,0,0,0,.844.275l3.985-1.45a.027.027,0,0,1,.034.016l1.179,3.239a.023.023,0,0,1,0,.02.024.024,0,0,1-.015.014l-3.986,1.45a.72.72,0,0,0-.469.753,9.679,9.679,0,0,1,0,2.063.72.72,0,0,0,.469.753l3.986,1.45a.024.024,0,0,1,.015.014.023.023,0,0,1,0,.02Zm0,0" transform="translate(401.716 5066)" fill="#ff283c"/>
    <path id="Path_3783" data-name="Path 3783" d="M288.838,114.293l-8.092,8.092-3.411-3.411a.72.72,0,1,0-1.018,1.018l3.491,3.491a1.325,1.325,0,0,0,1.875,0l8.173-8.173a.72.72,0,0,0-1.018-1.018Zm0,0" transform="translate(320.318 4962.836)" fill="#ff283c"/>
  </g>
</svg>
