<svg xmlns="http://www.w3.org/2000/svg" width="1543.564" height="1786.569" viewBox="0 0 1543.564 1786.569">
  <g id="line2" transform="translate(-92.66 -1295.302)">
    <path id="Path_3678" data-name="Path 3678" d="M2330.667,1296s363-11.333,379.667,173.333S2381,1647,2298,1650c-72,2-111.481,22.838-150,48-43.533,38-60.143,74.306-64.508,117.038-1.906,18.655,4.478,39.847,12.508,61.962,34.667,61,106.333,85.667,177,103,40.209,9.863,709.333,107.333,1178.667,296.667C3590.333,2338,3703.667,2442,3557,2630c-261.849,261.849-1291.868,408.808-1300,420" transform="translate(-1990)" fill="none" stroke="#707070" stroke-width="1" stroke-dasharray="10 4"/>
    <g id="Group_3624" data-name="Group 3624" transform="translate(-1612.284 460.684) rotate(-16)">
      <path id="Path_3720" data-name="Path 3720" d="M2775,2240.5l28.211,47.5,26.8-47.5" transform="translate(3364.21 204.686) rotate(90)" fill="none" stroke="#707070" stroke-width="1" stroke-dasharray="10 4"/>
    </g>
  </g>
</svg>
