<?xml version="1.0" encoding="utf-8"?>
<!-- Generator: Adobe Illustrator 21.0.0, SVG Export Plug-In . SVG Version: 6.00 Build 0)  -->
<svg version="1.1" id="Layer_1" xmlns="http://www.w3.org/2000/svg" xmlns:xlink="http://www.w3.org/1999/xlink" x="0px" y="0px"
	 viewBox="0 0 140.8 48.3" style="enable-background:new 0 0 140.8 48.3;" xml:space="preserve">
<style type="text/css">
	.st0{enable-background:new    ;}
	.st1{fill:url(#Path_19_1_);}
	.st2{fill:url(#Path_20_1_);}
	.st3{fill:#FF283C;}
</style>
<g id="logo" transform="translate(37.93 10.198)">
	<g class="st0">
		<path d="M0.3,14.6H3l3.6,7.2l3.5-7.2h2.8l-6.3,13L0.3,14.6z"/>
		<path d="M15.4,7.8H18v19.3h-2.6V7.8z"/>
		<path d="M21.5,27.1V14.6H24v2.1c0.8-0.8,1.4-1.5,2.1-1.8c0.6-0.4,1.3-0.6,2.1-0.6c1.1,0,2.1,0.4,2.9,1.1c0.8,0.7,1.2,1.6,1.2,2.7
			v9h-2.6v-8.3c0-0.7-0.2-1.2-0.7-1.7c-0.4-0.4-1-0.7-1.7-0.7c-0.9,0-1.6,0.4-2.3,1.1c-0.6,0.7-1,1.6-1,2.7v6.8H21.5z"/>
		<path d="M34.2,14.6H37l3.6,7.2l3.5-7.2h2.8l-6.3,13L34.2,14.6z"/>
		<path d="M61,21.4H50.3c0.2,1.3,0.8,2.2,1.6,2.8c0.8,0.6,1.7,0.9,2.7,0.9c1.5,0,2.7-0.6,3.8-1.9l1.9,1.5c-1.4,1.9-3.4,2.8-5.8,2.8
			c-1.9,0-3.4-0.6-4.7-1.9s-1.9-2.9-1.9-4.7c0-1.8,0.6-3.3,1.9-4.6c1.3-1.3,2.8-1.9,4.6-1.9c1.8,0,3.3,0.7,4.6,2
			C60.3,17.6,61,19.3,61,21.4z M50.6,19.3h7.6c-0.8-1.7-2.1-2.6-3.8-2.6C52.6,16.7,51.3,17.6,50.6,19.3z"/>
		<path d="M63.5,27.1V14.6h2.6v2.1c0.8-0.8,1.4-1.5,2.1-1.8s1.3-0.6,2.1-0.6c1.1,0,2.1,0.4,2.9,1.1c0.8,0.7,1.2,1.6,1.2,2.7v9h-2.6
			v-8.3c0-0.7-0.2-1.2-0.7-1.7c-0.4-0.4-1-0.7-1.7-0.7c-0.9,0-1.6,0.4-2.3,1.1c-0.6,0.7-1,1.6-1,2.7v6.8H63.5z"/>
		<path d="M78.4,11H81v3.6h2.6V17H81v10.1h-2.6V17h-2.1v-2.4h2.1V11z"/>
		<path d="M96.5,14.6h2.6v12.5h-2.6v-2.5c-1.3,1.9-2.9,2.8-4.8,2.8c-1.6,0-3-0.6-4.2-1.9c-1.2-1.3-1.7-2.9-1.7-4.7
			c0-1.7,0.6-3.3,1.8-4.6c1.2-1.3,2.6-2,4.1-2c1,0,1.9,0.3,2.8,0.8c0.9,0.5,1.6,1.2,2,2.1V14.6z M96.8,20.9c0-1.1-0.4-2.1-1.2-2.9
			c-0.8-0.8-1.8-1.2-2.9-1.2c-1.1,0-2.1,0.4-2.9,1.2s-1.2,1.8-1.2,2.8c0,1.2,0.4,2.2,1.2,3c0.8,0.8,1.8,1.2,2.9,1.2
			c1.1,0,2.1-0.4,2.9-1.2C96.4,23,96.8,22,96.8,20.9z"/>
	</g>
	<g id="Group_1" transform="translate(-37.93 -10.198)">
		<g id="Group_17" transform="translate(0 16.478)">
			<g id="Group_16">
				<g id="Group_15">
					<g id="Group_13" transform="translate(22.477)">
						
							<linearGradient id="Path_19_1_" gradientUnits="userSpaceOnUse" x1="-670.7092" y1="20.2873" x2="-668.8281" y2="18.6742" gradientTransform="matrix(9.116 0 0 31.785 6090.9995 -545.9993)">
							<stop  offset="0" style="stop-color:#71EFB5"/>
							<stop  offset="1" style="stop-color:#2A2A2A"/>
							<stop  offset="1" style="stop-color:#3782B0"/>
						</linearGradient>
						<path id="Path_19" class="st1" d="M0,31.8V9.1C0,4.1,4.1,0,9.1,0l0,0v22.7C9.1,27.7,5,31.8,0,31.8L0,31.8z"/>
					</g>
					<g id="Group_14" transform="translate(0 10.415)">
						
							<linearGradient id="Path_20_1_" gradientUnits="userSpaceOnUse" x1="-676.1332" y1="23.7587" x2="-674.6802" y2="27.7557" gradientTransform="matrix(28.923 0 0 21.3698 19546.1016 -545.9994)">
							<stop  offset="0" style="stop-color:#FF283C"/>
							<stop  offset="1" style="stop-color:#5D00A4"/>
						</linearGradient>
						<path id="Path_20" class="st2" d="M0,2.7c1.2-1.2,2.6-2,4.3-2.4c0.1,0,0.2,0,0.3-0.1C5.3,0,6,0,6.7,0c0.4,0,0.8,0,1.2,0.1
							c1.9,0.3,3.6,1.2,5,2.6l0.8,0.8l10.7,10.7l1,1l0.1,0.1l1.7,1.7l0.8,0.8l0.7,0.7c-0.5,0.5-1,0.9-1.5,1.2
							c-1.2,0.8-2.5,1.2-4,1.4c-0.3,0-0.7,0.1-1.1,0.1c-2.4,0-4.7-1-6.4-2.7l-5.4-5.4l-1.5-1.5L0,2.7z"/>
					</g>
				</g>
			</g>
		</g>
		<circle id="Ellipse_1" class="st3" cx="25.3" cy="6.4" r="6.4"/>
	</g>
</g>
</svg>
