<svg xmlns="http://www.w3.org/2000/svg" width="37.378" height="48" viewBox="0 0 37.378 48">
  <g id="security-coverage" transform="translate(-0.055)">
    <path id="Path_3758" data-name="Path 3758" d="M36.957,9.719,18.916.106a.9.9,0,0,0-.854.005L.521,9.724a.9.9,0,0,0-.466.788V23.068a26,26,0,0,0,15.584,23.8l2.435,1.061a.9.9,0,0,0,.715,0l2.744-1.185a25.949,25.949,0,0,0,15.9-23.922V10.512a.9.9,0,0,0-.476-.793Zm-1.321,13.1a24.157,24.157,0,0,1-14.808,22.27l-.006,0-2.389,1.031-2.076-.906A24.2,24.2,0,0,1,1.851,23.068V11.043L18.5,1.918,35.636,11.05Zm0,0" transform="translate(0 0)" fill="#ff283c"/>
    <path id="Path_3759" data-name="Path 3759" d="M81.423,149.788a.9.9,0,0,0-1.366,1.166L84.8,156.51a.9.9,0,0,0,1.249.114L97.1,147.634a.9.9,0,0,0-1.134-1.393L85.6,154.676Zm0,0" transform="translate(-69.55 -127.302)" fill="#ff283c"/>
  </g>
</svg>
