<svg xmlns="http://www.w3.org/2000/svg" width="285.001" height="285" viewBox="0 0 285.001 285">
  <g id="Group_3554" data-name="Group 3554" transform="translate(-137.937 -213.971)">
    <path id="Path_3722" data-name="Path 3722" d="M355.244,237.258,173.359,280.792l69.175,69.175,69.175,69.175Z" transform="translate(26.792 17.613)" fill="#ff283c"/>
    <g id="Group_3553" data-name="Group 3553" transform="translate(137.937 213.971)">
      <path id="Path_3723" data-name="Path 3723" d="M353.578,498.971a2.2,2.2,0,0,1-1.553-.643L138.58,284.882a2.2,2.2,0,0,1,1.042-3.688l114.37-27.374L420.23,214.031a2.2,2.2,0,0,1,2.647,2.647L355.714,497.287a2.195,2.195,0,0,1-2.136,1.684ZM144.458,284.55l207.9,207.9,65.418-273.313Z" transform="translate(-137.937 -213.971)" fill="#4c4c4c"/>
      <path id="Path_3724" data-name="Path 3724" d="M353.578,470.048a2.193,2.193,0,0,1-1.553-.643L138.58,255.959a2.2,2.2,0,0,1,2.1-3.68l169.884,43.561a2.195,2.195,0,0,1,1.581,1.581l43.561,169.886a2.2,2.2,0,0,1-2.127,2.74ZM147.356,258.525l202.1,202.1L308.213,299.772Z" transform="translate(-137.937 -185.048)" fill="#161414"/>
      <path id="Path_3725" data-name="Path 3725" d="M237.661,326.284a2.2,2.2,0,0,1-1.553-3.748L342.193,216.452a2.2,2.2,0,0,1,3.1,3.105L239.214,325.641A2.192,2.192,0,0,1,237.661,326.284Z" transform="translate(-64.169 -212.581)" fill="#161414"/>
    </g>
  </g>
</svg>
